<svg width="10" height="11" viewBox="0 0 10 11" fill="none" xmlns="http://www.w3.org/2000/svg">
<path fill-rule="evenodd" clip-rule="evenodd" d="M0.702944 1.20294C0 1.90589 0 3.03725 0 5.3V5.7C0 7.96275 0 9.0941 0.702944 9.79706C1.40589 10.5 2.53725 10.5 4.8 10.5H5.2C7.46275 10.5 8.5941 10.5 9.29706 9.79706C10 9.0941 10 7.96275 10 5.7V5.3C10 3.03725 10 1.90589 9.29706 1.20294C8.5941 0.5 7.46275 0.5 5.2 0.5H4.8C2.53725 0.5 1.40589 0.5 0.702944 1.20294ZM1.68752 3.54169C1.74169 6.14169 3.04169 7.70419 5.32085 7.70419H5.45004V6.21669C6.28754 6.30002 6.92083 6.91252 7.175 7.70419H8.35835C8.03335 6.52085 7.17915 5.86669 6.64581 5.61669C7.17915 5.30835 7.92915 4.55835 8.10831 3.54169H7.03329C6.79996 4.36669 6.10838 5.11669 5.45004 5.18752V3.54169H4.375V6.42502C3.70833 6.25835 2.86669 5.45002 2.82919 3.54169H1.68752Z" fill="#102B4E"/>
</svg>
