<svg width="11" height="11" viewBox="0 0 11 11" fill="none" xmlns="http://www.w3.org/2000/svg">
<path d="M10.0021 2.81244C8.50626 0.499924 5.45218 -0.187581 3.0837 1.24993C0.777557 2.68744 0.0296184 5.81246 1.5255 8.12498L1.65015 8.31248L1.15153 10.1875L3.02137 9.68749L3.20836 9.81249C4.01863 10.25 4.89122 10.5 5.76382 10.5C6.69874 10.5 7.63366 10.25 8.44393 9.74999C10.7501 8.24998 11.4357 5.18746 10.0021 2.81244ZM8.69324 7.62498C8.44393 7.99998 8.13229 8.24998 7.69599 8.31248C7.44668 8.31248 7.13504 8.43748 5.88847 7.93748C4.82889 7.43748 3.9563 6.62497 3.33302 5.68746C2.95905 5.24996 2.77206 4.68746 2.70973 4.12495C2.70973 3.62495 2.89672 3.18744 3.20836 2.87494C3.33302 2.74994 3.45767 2.68744 3.58233 2.68744H3.89397C4.01863 2.68744 4.14328 2.68744 4.20561 2.93744C4.33027 3.24994 4.64191 3.99995 4.64191 4.06245C4.70424 4.12495 4.70424 4.24995 4.64191 4.31245C4.70424 4.43745 4.64191 4.56245 4.57958 4.62496C4.51725 4.68746 4.45492 4.81246 4.3926 4.87496C4.26794 4.93746 4.20561 5.06246 4.26794 5.18746C4.51725 5.56246 4.82889 5.93747 5.14053 6.24997C5.5145 6.56247 5.88847 6.81247 6.32477 6.99997C6.44943 7.06247 6.57408 7.06247 6.63641 6.93747C6.69874 6.81247 7.01038 6.49997 7.13504 6.37497C7.25969 6.24997 7.32202 6.24997 7.44668 6.31247L8.44393 6.81247C8.56859 6.87497 8.69324 6.93747 8.75557 6.99997C8.8179 7.18747 8.8179 7.43748 8.69324 7.62498Z" fill="#102B4E"/>
</svg>
